<?xml version="1.0" encoding="UTF-8"?>
<svg width="158px" height="82px" viewBox="0 0 158 82" version="1.1" xmlns="http://www.w3.org/2000/svg" xmlns:xlink="http://www.w3.org/1999/xlink">
    <!-- Generator: Sketch 42 (36781) - http://www.bohemiancoding.com/sketch -->
    <title>ci_coreplus</title>
    <desc>Created with Sketch.</desc>
    <defs>
        <polygon id="path-1" points="0 12.4115597 0 0.256382258 10.9863325 0.256382258 10.9863325 12.4115597 1.59987177e-15 12.4115597"></polygon>
        <polygon id="path-3" points="10.4043 0.256183871 10.4043 12.4192968 0.149573333 12.4192968 0.149573333 0.256183871 10.4043 0.256183871"></polygon>
        <polygon id="path-5" points="0 81.339371 157.870967 81.339371 157.870967 0 0 0"></polygon>
    </defs>
    <g id="Page-1" stroke="none" stroke-width="1" fill="none" fill-rule="evenodd">
        <g id="Desktop-HD" transform="translate(-726.000000, -1106.000000)">
            <g id="associated" transform="translate(314.000000, 1057.000000)">
                <g id="ci_coreplus" transform="translate(412.000000, 49.000000)">
                    <g id="Page-1">
                        <path d="M83.2339392,14.8461 L79.3287058,14.6397774 L84.3201892,9.04658387 L78.8540475,8.75826129 L74.5419642,16.3392935 L78.4465392,16.5456161 L74.9152392,24.1676484 L83.2339392,14.8461 Z M78.9356808,0.000132258065 C87.2971725,0.000132258065 94.0753725,6.80877742 94.0753725,15.2071645 C94.0753725,23.6062129 87.2971725,30.4148581 78.9356808,30.4148581 C70.5748475,30.4148581 63.7966475,23.6062129 63.7966475,15.2071645 C63.7966475,6.80877742 70.5748475,0.000132258065 78.9356808,0.000132258065 Z" id="Fill-1" fill="#E63830"></path>
                        <g id="Group-5" transform="translate(0.000000, 52.242597)">
                            <mask id="mask-2" fill="white">
                                <use xlink:href="#path-1"></use>
                            </mask>
                            <g id="Clip-4"></g>
                            <path d="M8.51692417,7.88965645 L10.9863325,8.61905968 C10.6077908,9.9019629 9.97842417,10.8548823 9.09757417,11.4771565 C8.2173825,12.1000919 7.10019083,12.4115597 5.7466575,12.4115597 C4.0718575,12.4115597 2.6952825,11.8778984 1.61759083,10.8112371 C0.5385825,9.7452371 -0.0005925,8.28709194 -0.0005925,6.43812419 C-0.0005925,4.48202742 0.541874167,2.96238226 1.62549083,1.87985 C2.71042417,0.797317742 4.1350575,0.256382258 5.90136583,0.256382258 C7.44384083,0.256382258 8.6973075,0.681591935 9.6611075,1.53201129 C10.2338575,2.03393065 10.6657242,2.75539839 10.9514408,3.69641452 L8.4306825,4.25718871 C8.28189917,3.64814032 7.9705075,3.16672097 7.49782417,2.81359194 C7.0244825,2.46178548 6.44909917,2.28522097 5.77299083,2.28522097 C4.83749917,2.28522097 4.07909917,2.59801129 3.4971325,3.22293065 C2.9145075,3.84917258 2.6241825,4.86094677 2.6241825,6.26222097 C2.6241825,7.74814032 2.90989917,8.80554355 3.4833075,9.43641452 C4.0580325,10.0672855 4.8026075,10.382721 5.7209825,10.382721 C6.39709083,10.382721 6.97971583,10.18235 7.46754083,9.78094677 C7.9547075,9.38020484 8.30494083,8.74999516 8.51692417,7.88965645" id="Fill-3" fill="#E63830" mask="url(#mask-2)"></path>
                        </g>
                        <path d="M24.08868,58.5682355 C24.08868,59.8994129 24.418505,60.9078806 25.078155,61.5949613 C25.737805,62.2820419 26.5745467,62.6252516 27.590355,62.6252516 C28.605505,62.6252516 29.438955,62.2846871 30.0893883,61.6035581 C30.74048,60.9217677 31.0670133,59.8994129 31.0670133,58.5364935 C31.0670133,57.1894452 30.7490383,56.1842839 30.1157217,55.521671 C29.4817467,54.8590581 28.6397383,54.5277516 27.590355,54.5277516 C26.5409717,54.5277516 25.694355,54.8630258 25.0531383,55.5342355 C24.4099467,56.2047839 24.08868,57.2158968 24.08868,58.5682355 M21.4652217,58.6489129 C21.4652217,57.4519774 21.6567967,56.4468161 22.0412633,55.6340903 C22.3282967,55.0349613 22.7193467,54.4979935 23.2163883,54.0218645 C23.7121133,53.5470581 24.2552383,53.193929 24.8457633,52.9644613 C25.6318133,52.6543161 26.53768,52.4989129 27.56468,52.4989129 C29.423155,52.4989129 30.9096717,53.0358806 32.0255467,54.1111387 C33.1414217,55.1850742 33.69903,56.678929 33.69903,58.5927032 C33.69903,60.4899452 33.1453717,61.9752032 32.0387133,63.0464935 C30.9313967,64.1184452 29.4514633,64.6540903 27.5989133,64.6540903 C25.7233217,64.6540903 24.2321967,64.1210903 23.12488,63.0537677 C22.0182217,61.9877677 21.4652217,60.5190419 21.4652217,58.6489129" id="Fill-6" fill="#E63830"></path>
                        <path d="M47.0512808,57.6708645 L48.9347725,57.6708645 C50.1572975,57.6708645 50.9196475,57.621929 51.2237975,57.5260419 C51.5279475,57.4294935 51.7656058,57.264171 51.9380892,57.0294129 C52.1099142,56.7939935 52.1954975,56.4997194 52.1954975,56.1465903 C52.1954975,55.7518 52.0835808,55.4323968 51.8557975,55.1890419 C51.6293308,54.9456871 51.3100392,54.7922677 50.8972642,54.7281226 C50.6905475,54.7010097 50.0710558,54.6877839 49.0394475,54.6877839 L47.0512808,54.6877839 L47.0512808,57.6708645 Z M44.5048475,64.4530581 L44.5048475,52.6992839 L49.8643392,52.6992839 C51.2126058,52.6992839 52.1922058,52.8050903 52.8024808,53.0167032 C53.4134142,53.2276548 53.9018975,53.6032677 54.2699058,54.1428806 C54.6359392,54.6831548 54.8196142,55.3001387 54.8196142,55.9944935 C54.8196142,56.8773161 54.5424558,57.6047355 53.9855058,58.1793968 C53.4292142,58.7540581 52.5977392,59.1164452 51.4904225,59.2658968 C52.0407892,59.5654613 52.4963558,59.8941226 52.8544892,60.2518806 C53.2119642,60.6103 53.6964975,61.2464613 54.3041392,62.1597032 L55.8433225,64.4530581 L52.7985308,64.4530581 L50.9571725,61.8958484 C50.3027892,60.9812839 49.8557808,60.4059613 49.6154892,60.1678968 C49.3738808,59.9298323 49.1197642,59.7671548 48.8485308,59.6792032 C48.5792725,59.5912516 48.1526725,59.5462839 47.5680725,59.5462839 L47.0512808,59.5462839 L47.0512808,64.4530581 L44.5048475,64.4530581 Z" id="Fill-8" fill="#E63830"></path>
                        <polygon id="Fill-10" fill="#E63830" points="66.0304383 64.4533226 66.0304383 52.6995484 75.3820633 52.6995484 75.3820633 54.6880484 68.5768717 54.6880484 68.5768717 57.2935323 74.9087217 57.2935323 74.9087217 59.2740968 68.5768717 59.2740968 68.5768717 62.4727581 75.622355 62.4727581 75.622355 64.4533226"></polygon>
                        <path d="M89.1389917,54.6880484 L89.1389917,58.0229355 L90.532025,58.0229355 C91.5359833,58.0229355 92.2074833,57.9620968 92.5458667,57.8390968 C92.88425,57.7154355 93.1495583,57.5236613 93.3417917,57.2617903 C93.5333667,56.9999194 93.6294833,56.6950645 93.6294833,56.3472258 C93.6294833,55.9200323 93.4951833,55.5675645 93.2252667,55.2898226 C92.9560083,55.0114194 92.6149917,54.8381613 92.2015583,54.7680645 C91.8974083,54.7151613 91.2871333,54.6880484 90.3687583,54.6880484 L89.1389917,54.6880484 Z M86.5925583,64.4533226 L86.5925583,52.6995484 L90.6788333,52.6995484 C92.226575,52.6995484 93.237775,52.7590645 93.7065083,52.8761129 C94.4300167,53.0520161 95.035025,53.4362258 95.52285,54.0260968 C96.0100167,54.6172903 96.2542583,55.3797581 96.2542583,56.3154839 C96.2542583,57.0369516 96.113375,57.6440161 95.8322667,58.1353548 C95.5511583,58.6280161 95.1943417,59.0135484 94.7611583,59.2945968 C94.327975,59.5749839 93.8882083,59.7608065 93.4405417,59.8507419 C92.8322417,59.9638226 91.95205,60.0200323 90.79865,60.0200323 L89.1389917,60.0200323 L89.1389917,64.4533226 L86.5925583,64.4533226 Z" id="Fill-12" fill="#E63830"></path>
                        <polygon id="Fill-14" fill="#E63830" points="107.223211 64.4533226 107.223211 52.7954355 109.770302 52.7954355 109.770302 62.4727581 116.101494 62.4727581 116.101494 64.4533226"></polygon>
                        <path d="M126.710272,52.6994161 L129.256047,52.6994161 L129.256047,59.0656581 C129.256047,60.0761097 129.288306,60.7301258 129.351506,61.0296903 C129.460131,61.5111097 129.719514,61.8973032 130.129656,62.188271 C130.539797,62.4792387 131.100697,62.6253839 131.812356,62.6253839 C132.534547,62.6253839 133.079647,62.4878355 133.445681,62.2120774 C133.813689,61.9376419 134.034231,61.5990613 134.108622,61.1983194 C134.183672,60.7969161 134.221197,60.1323194 134.221197,59.2012226 L134.221197,52.6994161 L136.767631,52.6994161 L136.767631,58.8732226 C136.767631,60.2844161 136.699164,61.2816419 136.560914,61.8635774 C136.423322,62.4461742 136.169864,62.9381742 135.799881,63.3389161 C135.429897,63.7396581 134.934831,64.0590613 134.315339,64.2971258 C133.695847,64.534529 132.887414,64.6535613 131.889381,64.6535613 C130.685289,64.6535613 129.771522,64.5239484 129.149397,64.2653839 C128.527272,64.0061581 128.035497,63.6695613 127.673414,63.254271 C127.312647,62.8403032 127.074989,62.4058355 126.959781,61.9521903 C126.793222,61.2783355 126.710272,60.2844161 126.710272,58.9691097 L126.710272,52.6994161 Z" id="Fill-16" fill="#E63830"></path>
                        <g id="Group-20" transform="translate(147.466667, 52.242597)">
                            <mask id="mask-4" fill="white">
                                <use xlink:href="#path-3"></use>
                            </mask>
                            <g id="Clip-19"></g>
                            <path d="M0.149573333,8.38674839 L2.62819833,8.16190968 C2.775665,8.93694194 3.07849833,9.5063129 3.53472333,9.86936129 C3.99094833,10.2337323 4.60583167,10.4142645 5.38069,10.4142645 C6.200315,10.4142645 6.81849,10.2529097 7.23455667,9.92953871 C7.649965,9.60682903 7.85865667,9.22790968 7.85865667,8.79476452 C7.85865667,8.51702258 7.77044,8.28094194 7.59598167,8.08586129 C7.420865,7.89078065 7.11539833,7.72082903 6.67958167,7.57666774 C6.38135667,7.48078065 5.70195667,7.30950645 4.64072333,7.06350645 C3.27534,6.74807097 2.317465,6.36055484 1.76709833,5.90095806 C0.992898333,5.25421613 0.605798333,4.46595806 0.605798333,3.53618387 C0.605798333,2.93705484 0.787498333,2.37694194 1.15155667,1.85650645 C1.51627333,1.33474839 2.040965,0.938635484 2.72629,0.665522581 C3.411615,0.393070968 4.23914,0.256183871 5.208865,0.256183871 C6.79149833,0.256183871 7.98242333,0.580216129 8.78295667,1.22695806 C9.58349,1.87303871 10.0028483,2.73734516 10.0430067,3.81657097 L7.49657333,3.92039355 C7.38794833,3.31663548 7.15424,2.88216774 6.79544833,2.61765161 C6.437315,2.35313548 5.89879833,2.22153871 5.18319,2.22153871 C4.442565,2.22153871 3.86389,2.36239355 3.44453167,2.6460871 C3.17527333,2.82794194 3.04097333,3.07063548 3.04097333,3.37549032 C3.04097333,3.65323226 3.16605667,3.89129677 3.41885667,4.08902258 C3.74012333,4.3403129 4.52024833,4.60218387 5.75923167,4.87463548 C6.99755667,5.1470871 7.914615,5.42945806 8.507115,5.7210871 C9.10159,6.01205484 9.565715,6.41015161 9.901465,6.91471613 C10.237215,7.41994194 10.4044317,8.0442 10.4044317,8.78682903 C10.4044317,9.46068387 10.20364,10.0915548 9.80205667,10.6794419 C9.40113167,11.2679903 8.83233167,11.7044419 8.09960667,11.9901194 C7.36490667,12.2757968 6.44982333,12.4192968 5.35435667,12.4192968 C3.75987333,12.4192968 2.53537333,12.0754258 1.68085667,11.3890065 C0.82634,10.7019258 0.316131667,9.70139355 0.149573333,8.38674839" id="Fill-18" fill="#E63830" mask="url(#mask-4)"></path>
                        </g>
                        <mask id="mask-6" fill="white">
                            <use xlink:href="#path-5"></use>
                        </mask>
                        <g id="Clip-22"></g>
                        <polygon id="Fill-21" fill="#E63830" mask="url(#mask-6)" points="37.2912917 81.2758871 38.3624 81.2758871 38.3624 73.7662742 37.2912917 73.7662742"></polygon>
                        <polygon id="Fill-23" fill="#E63830" mask="url(#mask-6)" points="40.41008 73.7662081 41.439055 73.7662081 43.05658 78.2914177 43.0769883 78.2914177 43.0769883 73.7662081 44.1480967 73.7662081 44.1480967 81.275821 43.13953 81.275821 41.5015967 76.7618532 41.4811883 76.7618532 41.4811883 81.275821 40.41008 81.275821"></polygon>
                        <polygon id="Fill-24" fill="#E63830" mask="url(#mask-6)" points="46.8680667 74.7787758 45.628425 74.7787758 45.628425 73.7663403 49.1781583 73.7663403 49.1781583 74.7787758 47.9385167 74.7787758 47.9385167 81.2759532 46.8680667 81.2759532"></polygon>
                        <polygon id="Fill-25" fill="#E63830" mask="url(#mask-6)" points="50.7004225 73.7662081 53.8926808 73.7662081 53.8926808 74.7786435 51.7715308 74.7786435 51.7715308 76.9833855 53.6194725 76.9833855 53.6194725 77.995821 51.7715308 77.995821 51.7715308 80.1999016 53.8926808 80.1999016 53.8926808 81.275821 50.7004225 81.275821"></polygon>
                        <path d="M56.7063975,77.1204048 L57.3153558,77.1204048 C57.5042975,77.1204048 57.6543975,77.0939532 57.7663142,77.04105 C57.8782308,76.9888081 57.9644725,76.9127597 58.0237225,76.8142274 C58.0836308,76.7163565 58.1237892,76.594679 58.1448558,76.4505177 C58.1659225,76.3063565 58.1757975,76.1397113 58.1757975,75.9492597 C58.1757975,75.7594694 58.1659225,75.5928242 58.1448558,75.4486629 C58.1237892,75.3045016 58.0796808,75.1815016 58.0131892,75.0796629 C57.9466975,74.9778242 57.8538725,74.9017758 57.7347142,74.8528403 C57.6162142,74.8032435 57.4588725,74.7787758 57.2626892,74.7787758 L56.7063975,74.7787758 L56.7063975,77.1204048 Z M55.6352892,73.7663403 L57.3568308,73.7663403 C58.6168808,73.7663403 59.2469058,74.5010339 59.2469058,75.970421 C59.2469058,76.4068726 59.1790975,76.7811629 59.0428225,77.0939532 C58.9058892,77.4067435 58.6662558,77.6580339 58.3232642,77.8478242 L59.4786392,81.2759532 L58.3443308,81.2759532 L57.3469558,78.0693565 L56.7063975,78.0693565 L56.7063975,81.2759532 L55.6352892,81.2759532 L55.6352892,73.7663403 Z" id="Fill-26" fill="#E63830" mask="url(#mask-6)"></path>
                        <path d="M62.7966392,75.928429 L62.7755725,75.928429 L62.2502225,78.6496387 L63.3213308,78.6496387 L62.7966392,75.928429 Z M62.3443642,73.7660097 L63.2377225,73.7660097 L64.9072558,81.2762839 L63.8361475,81.2762839 L63.5214642,79.6620742 L62.0612808,79.6620742 L61.7459392,81.2762839 L60.6748308,81.2762839 L62.3443642,73.7660097 Z" id="Fill-27" fill="#E63830" mask="url(#mask-6)"></path>
                        <path d="M69.8846508,79.5989871 C69.8846508,79.8311 69.8405425,80.0526323 69.7529842,80.2635839 C69.6654258,80.4745355 69.5442925,80.6590355 69.3909008,80.8170839 C69.2368508,80.9757935 69.0564675,81.1021 68.8504092,81.1973258 C68.6430342,81.2918903 68.4211758,81.3395032 68.1835175,81.3395032 C67.9800925,81.3395032 67.7740342,81.3110677 67.5640258,81.2548581 C67.3533592,81.1986484 67.1644175,81.1021 66.9965425,80.9652129 C66.8286675,80.8276645 66.6904175,80.6471323 66.5817925,80.4216323 C66.4731675,80.1967935 66.4191842,79.9117774 66.4191842,79.5672452 L66.4191842,75.4328581 C66.4191842,75.1868581 66.4613175,74.9580516 66.5455842,74.7471 C66.6291925,74.5361484 66.7476925,74.3536323 66.9024008,74.1988903 C67.0557925,74.0441484 67.2394675,73.9231323 67.4540842,73.8345194 C67.6673842,73.747229 67.9030675,73.7029226 68.1624508,73.7029226 C68.4073508,73.7029226 68.6351342,73.747229 68.8451425,73.8345194 C69.0544925,73.9231323 69.2368508,74.0461323 69.3909008,74.2041806 C69.5442925,74.362229 69.6654258,74.5520194 69.7529842,74.7735516 C69.8405425,74.9950839 69.8846508,75.2357935 69.8846508,75.4963419 L69.8846508,75.9182452 L68.8135425,75.9182452 L68.8135425,75.5591645 C68.8135425,75.3482129 68.7536342,75.1656968 68.6351342,75.0109548 C68.5159758,74.8562129 68.3546842,74.7788419 68.1519175,74.7788419 C67.8859508,74.7788419 67.7088592,74.8615032 67.6213008,75.0268258 C67.5344008,75.1921484 67.4902925,75.4011161 67.4902925,75.6543903 L67.4902925,79.4938419 C67.4902925,79.7114065 67.5376925,79.8945839 67.6318342,80.0420516 C67.7266342,80.1895194 67.8958258,80.2635839 68.1413842,80.2635839 C68.2111675,80.2635839 68.2862175,80.2516806 68.3665342,80.2265516 C68.4475092,80.2020839 68.5212425,80.1617452 68.5870758,80.1055355 C68.6542258,80.0493258 68.7082092,79.9719548 68.7503425,79.8734226 C68.7924758,79.7748903 68.8135425,79.6518903 68.8135425,79.5037613 L68.8135425,79.1347613 L69.8846508,79.1347613 L69.8846508,79.5989871 Z" id="Fill-28" fill="#E63830" mask="url(#mask-6)"></path>
                        <polygon id="Fill-29" fill="#E63830" mask="url(#mask-6)" points="72.5096233 74.7787758 71.2699817 74.7787758 71.2699817 73.7663403 74.819715 73.7663403 74.819715 74.7787758 73.5800733 74.7787758 73.5800733 81.2759532 72.5096233 81.2759532"></polygon>
                        <polygon id="Fill-30" fill="#E63830" mask="url(#mask-6)" points="76.37325 81.2758871 77.4443583 81.2758871 77.4443583 73.7662742 76.37325 73.7662742"></polygon>
                        <polygon id="Fill-31" fill="#E63830" mask="url(#mask-6)" points="81.6337283 81.2760855 80.6883617 81.2760855 79.166295 73.7664726 80.3006033 73.7664726 81.15117 79.008521 81.1722367 79.008521 82.0326783 73.7664726 83.1669867 73.7664726"></polygon>
                        <polygon id="Fill-32" fill="#E63830" mask="url(#mask-6)" points="84.8572575 73.7662081 88.0495158 73.7662081 88.0495158 74.7786435 85.9283658 74.7786435 85.9283658 76.9833855 87.7769658 76.9833855 87.7769658 77.995821 85.9283658 77.995821 85.9283658 80.1999016 88.0495158 80.1999016 88.0495158 81.275821 84.8572575 81.275821"></polygon>
                        <path d="M92.7328333,75.5382016 C92.7328333,75.2359919 92.7848417,74.9688306 92.890175,74.7367177 C92.99485,74.5046048 93.1331,74.3128306 93.304925,74.1613952 C93.47675,74.010621 93.6689833,73.8962177 93.8822833,73.8188468 C94.0955833,73.7414758 94.3108583,73.703121 94.5287667,73.703121 C94.7453583,73.703121 94.9606333,73.7414758 95.1739333,73.8188468 C95.3872333,73.8962177 95.5794667,74.010621 95.7512917,74.1613952 C95.9231167,74.3128306 96.0613667,74.5046048 96.1667,74.7367177 C96.271375,74.9688306 96.3240417,75.2359919 96.3240417,75.5382016 L96.3240417,75.9177823 L95.2529333,75.9177823 L95.2529333,75.5382016 C95.2529333,75.2783145 95.181175,75.0865403 95.0376583,74.9635403 C94.8934833,74.8405403 94.7236333,74.7790403 94.5287667,74.7790403 C94.3325833,74.7790403 94.1627333,74.8405403 94.0185583,74.9635403 C93.8750417,75.0865403 93.8039417,75.2783145 93.8039417,75.5382016 L93.8039417,79.5039597 C93.8039417,79.7645081 93.8750417,79.955621 94.0185583,80.078621 C94.1627333,80.201621 94.3325833,80.2637823 94.5287667,80.2637823 C94.7236333,80.2637823 94.8934833,80.201621 95.0376583,80.078621 C95.181175,79.955621 95.2529333,79.7645081 95.2529333,79.5039597 L95.2529333,78.0907823 L94.4023667,78.0907823 L94.4023667,77.1411694 L96.3240417,77.1411694 L96.3240417,79.5039597 C96.3240417,79.8134435 96.271375,80.0825887 96.1667,80.3107339 C96.0613667,80.5395403 95.9231167,80.7293306 95.7512917,80.8807661 C95.5794667,81.0315403 95.3872333,81.1459435 95.1739333,81.2233145 C94.9606333,81.3006855 94.7453583,81.3390403 94.5287667,81.3390403 C94.3108583,81.3390403 94.0955833,81.3006855 93.8822833,81.2233145 C93.6689833,81.1459435 93.47675,81.0315403 93.304925,80.8807661 C93.1331,80.7293306 92.99485,80.5395403 92.890175,80.3107339 C92.7848417,80.0825887 92.7328333,79.8134435 92.7328333,79.5039597 L92.7328333,75.5382016 Z" id="Fill-33" fill="#E63830" mask="url(#mask-6)"></path>
                        <path d="M99.3900975,77.1204048 L99.9990558,77.1204048 C100.187997,77.1204048 100.338097,77.0939532 100.450014,77.04105 C100.561931,76.9888081 100.648172,76.9127597 100.707422,76.8142274 C100.767331,76.7163565 100.807489,76.594679 100.828556,76.4505177 C100.849622,76.3063565 100.859497,76.1397113 100.859497,75.9492597 C100.859497,75.7594694 100.849622,75.5928242 100.828556,75.4486629 C100.807489,75.3045016 100.763381,75.1815016 100.696889,75.0796629 C100.630397,74.9778242 100.537572,74.9017758 100.418414,74.8528403 C100.299914,74.8032435 100.142572,74.7787758 99.9463892,74.7787758 L99.3900975,74.7787758 L99.3900975,77.1204048 Z M98.3189892,73.7663403 L100.040531,73.7663403 C101.300581,73.7663403 101.930606,74.5010339 101.930606,75.970421 C101.930606,76.4068726 101.862797,76.7811629 101.726522,77.0939532 C101.589589,77.4067435 101.349956,77.6580339 101.006964,77.8478242 L102.162339,81.2759532 L101.028031,81.2759532 L100.030656,78.0693565 L99.3900975,78.0693565 L99.3900975,81.2759532 L98.3189892,81.2759532 L98.3189892,73.7663403 Z" id="Fill-34" fill="#E63830" mask="url(#mask-6)"></path>
                        <path d="M104.850248,79.5040258 C104.850248,79.7645742 104.921348,79.9556871 105.064865,80.0786871 C105.20904,80.2016871 105.37889,80.2631871 105.575073,80.2631871 C105.76994,80.2631871 105.93979,80.2016871 106.083965,80.0786871 C106.227482,79.9556871 106.29924,79.7645742 106.29924,79.5040258 L106.29924,75.5382677 C106.29924,75.2783806 106.227482,75.0866065 106.083965,74.9636065 C105.93979,74.8406065 105.76994,74.7784452 105.575073,74.7784452 C105.37889,74.7784452 105.20904,74.8406065 105.064865,74.9636065 C104.921348,75.0866065 104.850248,75.2783806 104.850248,75.5382677 L104.850248,79.5040258 Z M103.77914,75.5382677 C103.77914,75.2360581 103.831148,74.9688968 103.936482,74.7367839 C104.041157,74.504671 104.179407,74.3128968 104.351232,74.1614613 C104.523057,74.0106871 104.71529,73.8962839 104.92859,73.8189129 C105.14189,73.7415419 105.357823,73.7031871 105.575073,73.7031871 C105.791665,73.7031871 106.00694,73.7415419 106.22024,73.8189129 C106.43354,73.8962839 106.625773,74.0106871 106.797598,74.1614613 C106.969423,74.3128968 107.107673,74.504671 107.213007,74.7367839 C107.317682,74.9688968 107.370348,75.2360581 107.370348,75.5382677 L107.370348,79.5040258 C107.370348,79.8135097 107.317682,80.0826548 107.213007,80.3108 C107.107673,80.5396065 106.969423,80.7293968 106.797598,80.8808323 C106.625773,81.0316065 106.43354,81.1460097 106.22024,81.2233806 C106.00694,81.3007516 105.791665,81.3391065 105.575073,81.3391065 C105.357823,81.3391065 105.14189,81.3007516 104.92859,81.2233806 C104.71529,81.1460097 104.523057,81.0316065 104.351232,80.8808323 C104.179407,80.7293968 104.041157,80.5396065 103.936482,80.3108 C103.831148,80.0826548 103.77914,79.8135097 103.77914,79.5040258 L103.77914,75.5382677 Z" id="Fill-35" fill="#E63830" mask="url(#mask-6)"></path>
                        <path d="M112.830631,79.5884726 C112.830631,79.8344726 112.785206,80.063279 112.693697,80.2742306 C112.602847,80.4851823 112.478422,80.6696823 112.321081,80.8277306 C112.163081,80.985779 111.980064,81.1107629 111.770056,81.202021 C111.559389,81.293279 111.335556,81.3395694 111.097897,81.3395694 C110.859581,81.3395694 110.635747,81.293279 110.425739,81.202021 C110.215731,81.1107629 110.032056,80.985779 109.874714,80.8277306 C109.717372,80.6696823 109.592289,80.4851823 109.501439,80.2742306 C109.410589,80.063279 109.365164,79.8344726 109.365164,79.5884726 L109.365164,73.7664726 L110.436272,73.7664726 L110.436272,79.4833274 C110.436272,79.7504887 110.499472,79.9468919 110.625214,80.0738597 C110.751614,80.2001661 110.908956,80.26365 111.097897,80.26365 C111.286839,80.26365 111.444839,80.2001661 111.570581,80.0738597 C111.696322,79.9468919 111.759522,79.7504887 111.759522,79.4833274 L111.759522,73.7664726 L112.830631,73.7664726 L112.830631,79.5884726 Z" id="Fill-36" fill="#E63830" mask="url(#mask-6)"></path>
                        <path d="M115.959623,77.3312903 L116.473782,77.3312903 C116.690373,77.3312903 116.858907,77.2995484 116.978065,77.2360645 C117.097223,77.1732419 117.184123,77.0872742 117.240082,76.9781613 C117.29604,76.8690484 117.329615,76.7374516 117.340148,76.5827097 C117.350682,76.4279677 117.355948,76.255371 117.355948,76.0655806 C117.355948,75.8896774 117.350682,75.7230323 117.340148,75.5643226 C117.329615,75.4062742 117.298015,75.2693871 117.245348,75.153 C117.19334,75.0372742 117.111048,74.9460161 116.999132,74.8792258 C116.886557,74.8124355 116.725923,74.7787097 116.515915,74.7787097 L115.959623,74.7787097 L115.959623,77.3312903 Z M114.888515,73.7662742 L116.494848,73.7662742 C116.789123,73.7662742 117.047848,73.804629 117.271682,73.882 C117.496173,73.9600323 117.69894,74.0969194 117.881298,74.2933226 C118.062998,74.4903871 118.189398,74.7205161 118.259182,74.984371 C118.328965,75.2482258 118.363857,75.6053226 118.363857,76.055 C118.363857,76.3856452 118.344765,76.6686774 118.305923,76.9040968 C118.26774,77.1395161 118.185448,77.3597258 118.059048,77.5634032 C117.912898,77.8094032 117.716715,78.0011774 117.471815,78.1380645 C117.226257,78.2749516 116.90499,78.3437258 116.505382,78.3437258 L115.959623,78.3437258 L115.959623,81.2758871 L114.888515,81.2758871 L114.888515,73.7662742 Z" id="Fill-37" fill="#E63830" mask="url(#mask-6)"></path>
                        <path d="M30.9285658,77.6470565 C30.9285658,78.1681532 30.5078908,78.5900565 29.9891242,78.5900565 C29.4710158,78.5900565 29.0503408,78.1681532 29.0503408,77.6470565 C29.0503408,77.1259597 29.4710158,76.7040565 29.9891242,76.7040565 C30.5078908,76.7040565 30.9285658,77.1259597 30.9285658,77.6470565" id="Fill-38" fill="#E63830" mask="url(#mask-6)"></path>
                        <path d="M127.414228,77.6470565 C127.414228,78.1681532 126.993553,78.5900565 126.474787,78.5900565 C125.956678,78.5900565 125.536003,78.1681532 125.536003,77.6470565 C125.536003,77.1259597 125.956678,76.7040565 126.474787,76.7040565 C126.993553,76.7040565 127.414228,77.1259597 127.414228,77.6470565" id="Fill-39" fill="#E63830" mask="url(#mask-6)"></path>
                    </g>
                </g>
            </g>
        </g>
    </g>
</svg>