<?xml version="1.0" encoding="UTF-8"?>
<svg width="64px" height="76px" viewBox="0 0 64 76" version="1.1" xmlns="http://www.w3.org/2000/svg" xmlns:xlink="http://www.w3.org/1999/xlink">
    <!-- Generator: Sketch 42 (36781) - http://www.bohemiancoding.com/sketch -->
    <title>Page 1</title>
    <desc>Created with Sketch.</desc>
    <defs>
        <polygon id="path-1" points="63.8327031 0.084 0 0.084 0 75.9997 63.8327031 75.9997 63.8327031 0.084"></polygon>
    </defs>
    <g id="Page-1" stroke="none" stroke-width="1" fill="none" fill-rule="evenodd">
        <g id="Desktop-HD" transform="translate(-100.000000, -822.000000)">
            <g id="Page-1" transform="translate(100.000000, 821.000000)">
                <g id="Group-3" transform="translate(0.000000, 0.916100)">
                    <mask id="mask-2" fill="white">
                        <use xlink:href="#path-1"></use>
                    </mask>
                    <g id="Clip-2"></g>
                    <path d="M31.9167,5.2237 L13.2977,22.2877 C7.2507,27.7157 3.7917,35.4737 3.7917,43.5907 C3.7997,59.1107 16.4307,71.9487 31.9497,72.2077 C47.4057,71.9487 60.0377,59.1107 60.0407,43.5907 C60.0447,35.4777 56.5827,27.7197 50.5427,22.2987 L50.5277,22.2837 L31.9167,5.2237 Z M-0.0003,43.5907 C-0.0003,34.3997 3.9177,25.6127 10.7497,19.4767 L31.9167,0.0837 L53.0797,19.4807 C59.9187,25.6197 63.8367,34.4077 63.8327,43.5907 C63.8297,61.1697 49.5237,75.7077 31.9497,75.9997 C14.3127,75.7077 0.0077,61.1697 -0.0003,43.5907 Z" id="Fill-1" fill="#58FCFA" mask="url(#mask-2)"></path>
                </g>
                <path d="M31.9157,57.4418 C24.6367,57.3208 18.7737,51.3878 18.7707,44.0818 C18.7707,40.1418 20.4867,36.5788 23.2027,34.1398 L31.9157,26.1568 L40.6267,34.1398 C43.3447,36.5788 45.0627,40.1418 45.0617,44.0818 C45.0597,51.3878 39.1927,57.3208 31.9157,57.4418 M45.5957,29.0848 L31.9157,16.5468 L18.2327,29.0848 C13.9677,32.9148 11.2717,38.5098 11.2717,44.6968 C11.2767,56.1718 20.4837,65.4888 31.9157,65.6788 C43.3447,65.4888 52.5577,56.1718 52.5597,44.6968 C52.5627,38.5098 49.8637,32.9148 45.5957,29.0848" id="Fill-4" fill="#E20073"></path>
            </g>
        </g>
    </g>
</svg>