<?xml version="1.0" encoding="UTF-8"?>
<svg width="64px" height="70px" viewBox="0 0 64 70" version="1.1" xmlns="http://www.w3.org/2000/svg" xmlns:xlink="http://www.w3.org/1999/xlink">
    <!-- Generator: Sketch 42 (36781) - http://www.bohemiancoding.com/sketch -->
    <title>ci_viplus</title>
    <desc>Created with Sketch.</desc>
    <defs>
        <polygon id="path-1" points="0 69.3518519 63.835798 69.3518519 63.835798 0.0602777778 0 0.0602777778"></polygon>
    </defs>
    <g id="Page-1" stroke="none" stroke-width="1" fill="none" fill-rule="evenodd">
        <g id="Desktop-HD" transform="translate(-597.000000, -1118.000000)">
            <g id="associated" transform="translate(314.000000, 1057.000000)">
                <g id="ci_viplus" transform="translate(283.000000, 61.000000)">
                    <g id="Page-1">
                        <polygon id="Fill-1" fill="#FFFFFF" points="0.698828283 62.7135185 1.01042424 62.7135185 1.01042424 57.7999074 0.698828283 57.7999074"></polygon>
                        <polygon id="Fill-2" fill="#FFFFFF" points="7.08286061 62.8308333 3.08641616 58.489537 3.08641616 62.7135185 2.77223434 62.7135185 2.77223434 57.6780556 6.77191111 62.0141667 6.77191111 57.7999074 7.08286061 57.7999074"></polygon>
                        <polygon id="Fill-3" fill="#FFFFFF" points="13.2116687 62.8308333 9.21393131 58.489537 9.21393131 62.7135185 8.90039596 62.7135185 8.90039596 57.6780556 12.8994263 62.0141667 12.8994263 57.7999074 13.2116687 57.7999074"></polygon>
                        <g id="Group-41" transform="translate(0.000000, 0.587870)">
                            <path d="M19.4389333,59.6665093 C19.4389333,59.0403981 19.2243071,58.5121574 18.7918222,58.0843796 C18.3625697,57.6514167 17.8350545,57.4362315 17.213802,57.4362315 C16.5964283,57.4362315 16.0740848,57.6514167 15.6467717,58.0843796 C15.2194586,58.5121574 15.0054788,59.0403981 15.0054788,59.6665093 C15.0054788,60.2913241 15.2168727,60.8208611 15.6448323,61.2518796 C16.0689131,61.6790093 16.5951354,61.8980833 17.213802,61.8980833 C17.8350545,61.8980833 18.3625697,61.6790093 18.7918222,61.2499352 C19.2243071,60.8169722 19.4389333,60.2913241 19.4389333,59.6665093 Z M19.7498828,59.6665093 C19.7498828,60.3684537 19.5048727,60.9653981 19.0096808,61.4534537 C18.5157818,61.9434537 17.9171556,62.1865093 17.213802,62.1865093 C16.5169131,62.1865093 15.9202263,61.9434537 15.4289131,61.4534537 C14.9401859,60.9653981 14.6945293,60.3684537 14.6945293,59.6665093 C14.6945293,58.9509537 14.9350141,58.3488241 15.4172768,57.8691944 C15.9001859,57.3837315 16.4975192,57.1432685 17.213802,57.1432685 C17.9307313,57.1432685 18.5338828,57.3837315 19.0206707,57.8691944 C19.5061657,58.3488241 19.7498828,58.9509537 19.7498828,59.6665093 Z" id="Fill-4" fill="#FFFFFF"></path>
                            <polygon id="Fill-6" fill="#FFFFFF" points="24.1214061 57.212037 22.2796283 62.242963 20.4462545 57.212037 20.7901737 57.212037 22.2796283 61.3887037 23.7742545 57.212037"></polygon>
                            <path d="M27.3473939,60.1232593 L26.4436364,57.8275185 L25.5411717,60.1232593 L27.3473939,60.1232593 Z M28.4709495,62.1253889 L28.1412525,62.1253889 L27.4650505,60.4142778 L25.4241616,60.4142778 L24.7473131,62.1253889 L24.4156768,62.1253889 L26.4436364,57.0899259 L28.4709495,62.1253889 Z" id="Fill-8" fill="#FFFFFF"></path>
                            <polygon id="Fill-10" fill="#FFFFFF" points="31.4793374 57.5031852 30.3034182 57.5031852 30.3034182 62.1251296 29.9892364 62.1251296 29.9892364 57.5031852 28.8146101 57.5031852 28.8146101 57.2121667 31.4793374 57.2121667"></polygon>
                            <mask id="mask-2" fill="white">
                                <use xlink:href="#path-1"></use>
                            </mask>
                            <g id="Clip-13"></g>
                            <polygon id="Fill-12" fill="#FFFFFF" mask="url(#mask-2)" points="32.6445253 62.1256481 32.9554747 62.1256481 32.9554747 57.212037 32.6445253 57.212037"></polygon>
                            <path d="M39.1251394,59.6665093 C39.1251394,59.0403981 38.9118061,58.5121574 38.4780283,58.0843796 C38.0468364,57.6514167 37.5212606,57.4362315 36.901301,57.4362315 C36.2845737,57.4362315 35.7602909,57.6514167 35.3323313,58.0843796 C34.9069576,58.5121574 34.6910384,59.0403981 34.6910384,59.6665093 C34.6910384,60.2913241 34.9069576,60.8208611 35.3323313,61.2518796 C35.7583515,61.6790093 36.279402,61.8980833 36.901301,61.8980833 C37.5212606,61.8980833 38.0468364,61.6790093 38.4780283,61.2499352 C38.9118061,60.8169722 39.1251394,60.2913241 39.1251394,59.6665093 M39.4386747,59.6665093 C39.4386747,60.3684537 39.1897859,60.9653981 38.6958869,61.4534537 C38.2026343,61.9434537 37.605301,62.1865093 36.901301,62.1865093 C36.2024727,62.1865093 35.6103111,61.9434537 35.1164121,61.4534537 C34.6276848,60.9653981 34.3794424,60.3684537 34.3794424,59.6665093 C34.3794424,58.9509537 34.6205737,58.3488241 35.1034828,57.8691944 C35.5857455,57.3837315 36.187604,57.1432685 36.901301,57.1432685 C37.6188768,57.1432685 38.2200889,57.3837315 38.7075232,57.8691944 C39.1943111,58.3488241 39.4386747,58.9509537 39.4386747,59.6665093" id="Fill-14" fill="#FFFFFF" mask="url(#mask-2)"></path>
                            <polygon id="Fill-15" fill="#FFFFFF" mask="url(#mask-2)" points="45.226796 62.242963 41.230998 57.9016667 41.230998 62.1256481 40.9181091 62.1256481 40.9181091 57.0901852 44.9158465 61.4262963 44.9158465 57.212037 45.226796 57.212037"></polygon>
                            <path d="M51.6251798,58.519287 C51.6251798,58.1660463 51.5172202,57.9074352 51.301301,57.7486389 C51.0892606,57.5846574 50.7369374,57.5029907 50.2456242,57.5029907 L49.9922101,57.5029907 L49.9922101,59.51225 L50.2456242,59.51225 C50.7427556,59.51225 51.0950788,59.4338241 51.3064727,59.2795648 C51.5172202,59.1246574 51.6251798,58.869287 51.6251798,58.519287 M51.9380687,58.519287 C51.9380687,58.956787 51.8003717,59.2795648 51.5262707,59.4882685 C51.2521697,59.6989167 50.825503,59.8045648 50.2456242,59.8045648 L49.9922101,59.8045648 L49.9922101,62.1255833 L49.6793212,62.1255833 L49.6793212,57.2119722 L50.2456242,57.2119722 C50.8377859,57.2119722 51.2670384,57.3189167 51.5340283,57.5308611 C51.8029576,57.7434537 51.9380687,58.0707685 51.9380687,58.519287" id="Fill-16" fill="#FFFFFF" mask="url(#mask-2)"></path>
                            <polygon id="Fill-17" fill="#FFFFFF" mask="url(#mask-2)" points="54.7514182 62.1253889 53.2445091 62.1253889 53.2445091 57.2117778 53.5528727 57.2117778 53.5528727 61.8317778 54.7514182 61.8317778"></polygon>
                            <path d="M58.9401859,60.3017593 C58.9401859,60.9725926 58.8121859,61.4535185 58.5594182,61.7471296 C58.3014788,62.0400926 57.8903273,62.1865741 57.3162667,62.1865741 C56.7428525,62.1865741 56.3284687,62.0400926 56.0731152,61.7471296 C55.8190545,61.4535185 55.691701,60.9725926 55.691701,60.3017593 L55.691701,57.212037 L56.0026505,57.212037 L56.0026505,60.3853704 C56.0026505,60.9136111 56.1080242,61.2992593 56.3155394,61.5371296 C56.5269333,61.7782407 56.8572768,61.8975 57.3162667,61.8975 C57.7694384,61.8975 58.1017212,61.7782407 58.3169939,61.5371296 C58.5270949,61.2992593 58.6305293,60.9136111 58.6305293,60.3853704 L58.6305293,57.212037 L58.9401859,57.212037 L58.9401859,60.3017593 Z" id="Fill-18" fill="#FFFFFF" mask="url(#mask-2)"></path>
                            <path d="M63.1056162,60.8126296 C63.1056162,61.230037 62.9698586,61.5651296 62.7041616,61.8140185 C62.4339394,62.0642037 62.0770909,62.1867037 61.6368485,62.1867037 C61.3278384,62.1867037 61.0582626,62.1095741 60.8261818,61.9527222 C60.5966869,61.7978148 60.4247273,61.5787407 60.3219394,61.2948519 L60.5869899,61.160037 C60.6710303,61.3914259 60.8113131,61.5722593 61.0020202,61.7005926 C61.1875556,61.8321667 61.4067071,61.8976296 61.6620606,61.8976296 C62.0130909,61.8976296 62.2884848,61.8036481 62.4895354,61.6040185 C62.6912323,61.4154074 62.7946667,61.1496667 62.7946667,60.8126296 C62.7946667,60.5617963 62.7164444,60.3420741 62.5490101,60.1567037 C62.386101,59.970037 62.1197576,59.7905 61.7486869,59.6167963 C61.2832323,59.4003148 60.9658182,59.1980926 60.7893333,59.0094815 C60.6128485,58.8195741 60.5229899,58.5655 60.5229899,58.2498519 C60.5229899,57.9186481 60.6412929,57.6561481 60.8643232,57.450037 C61.0951111,57.2452222 61.3924848,57.1428148 61.7596768,57.1428148 C61.9846465,57.1428148 62.1811717,57.1888333 62.3518384,57.2776296 C62.5205657,57.3696667 62.6595556,57.5031852 62.7746263,57.685963 L62.5283232,57.860963 C62.4410505,57.7255 62.3311515,57.6205 62.1966869,57.5466111 C62.057697,57.4733704 61.901899,57.4364259 61.7305859,57.4364259 C61.4500202,57.4364259 61.2315152,57.5103148 61.0724848,57.6561481 C60.9153939,57.8026296 60.8339394,58.0035556 60.8339394,58.2615185 C60.8339394,58.465037 60.8869495,58.6322593 60.9897374,58.7677222 C61.097697,58.898 61.2806465,59.0347593 61.5450505,59.1760556 C61.6155152,59.2142963 61.718303,59.2693889 61.8598788,59.3393889 C62.6899394,59.7483704 63.1056162,60.240963 63.1056162,60.8126296" id="Fill-19" fill="#FFFFFF" mask="url(#mask-2)"></path>
                            <path d="M4.58983434,68.8639259 C4.36486465,68.9993889 4.11920808,69.1069815 3.84898586,69.1841111 C3.57811717,69.2618889 3.31565253,69.2955926 3.05771313,69.2955926 C2.31815758,69.2955926 1.71048081,69.0642037 1.23726869,68.5936481 C0.762117172,68.1217963 0.526157576,67.5151296 0.526157576,66.7717037 C0.526157576,66.0444815 0.76470303,65.4404074 1.24761212,64.9653148 C1.72599596,64.4902222 2.3304404,64.2517037 3.05771313,64.2517037 C3.3563798,64.2517037 3.63177374,64.292537 3.88648081,64.3761481 C4.13924848,64.4558704 4.37197576,64.5744815 4.58983434,64.7352222 L4.58983434,65.0968889 C4.34999596,64.9076296 4.10951111,64.7676296 3.87161212,64.6814259 C3.63048081,64.5913333 3.37706667,64.5492037 3.10619798,64.5492037 C2.43969293,64.5492037 1.8953697,64.7527222 1.47064242,65.1668889 C1.04914747,65.5797593 0.837107071,66.1157778 0.837107071,66.7717037 C0.837107071,67.4269815 1.04526869,67.963 1.45900606,68.3797593 C1.87726869,68.7926296 2.40349091,69.0052222 3.04090505,69.0052222 C3.3124202,69.0052222 3.58199596,68.9605 3.84510707,68.8742963 C4.10951111,68.7880926 4.35969293,68.6636481 4.58983434,68.5003148 L4.58983434,68.8639259 Z" id="Fill-20" fill="#FFFFFF" mask="url(#mask-2)"></path>
                            <path d="M8.14913939,65.6017315 C8.14913939,65.2724722 8.04570505,65.0229352 7.83689697,64.8596019 C7.62873535,64.6936759 7.31455354,64.6120093 6.89241212,64.6120093 L6.49095758,64.6120093 L6.49095758,66.5156204 L6.89241212,66.5156204 C7.3261899,66.5156204 7.64425051,66.4430278 7.8472404,66.2958981 C8.04958384,66.1494167 8.14913939,65.9193241 8.14913939,65.6017315 L8.14913939,65.6017315 Z M8.70186667,69.2346019 L8.31334141,69.2346019 L6.6002101,66.8111759 L6.49095758,66.8111759 L6.49095758,69.2346019 L6.17936162,69.2346019 L6.17936162,64.3209907 L6.89887677,64.3209907 C7.40441212,64.3209907 7.79164444,64.4311759 8.05669495,64.6580278 C8.32756364,64.8835833 8.46073535,65.2024722 8.46073535,65.6166389 C8.46073535,65.9886759 8.32885657,66.2848796 8.06897778,66.4948796 C7.8071596,66.7029352 7.43802828,66.8111759 6.95770505,66.8111759 L8.70186667,69.2346019 Z" id="Fill-21" fill="#FFFFFF" mask="url(#mask-2)"></path>
                            <polygon id="Fill-22" fill="#FFFFFF" mask="url(#mask-2)" points="12.3057131 69.2344074 9.99912727 69.2344074 9.99912727 64.3207963 12.3057131 64.3207963 12.3057131 64.6118148 10.3113697 64.6118148 10.3113697 66.3417222 12.3057131 66.3417222 12.3057131 66.634037 10.3113697 66.634037 10.3113697 68.9433889 12.3057131 68.9433889"></polygon>
                            <path d="M16.325301,67.232213 L15.4221899,64.9390648 L14.5184323,67.232213 L16.325301,67.232213 Z M17.449503,69.2343426 L17.1198061,69.2343426 L16.4423111,67.5232315 L14.4014222,67.5232315 L13.7265131,69.2343426 L13.3929374,69.2343426 L15.4221899,64.2014722 L17.449503,69.2343426 Z" id="Fill-23" fill="#FFFFFF" mask="url(#mask-2)"></path>
                            <polygon id="Fill-24" fill="#FFFFFF" mask="url(#mask-2)" points="20.4572444 64.6121389 19.2787394 64.6121389 19.2787394 69.2347315 18.9690828 69.2347315 18.9690828 64.6121389 17.7899313 64.6121389 17.7899313 64.3211204 20.4572444 64.3211204"></polygon>
                            <polygon id="Fill-25" fill="#FFFFFF" mask="url(#mask-2)" points="21.622303 69.234537 21.9332525 69.234537 21.9332525 64.3209259 21.622303 64.3209259"></polygon>
                            <polygon id="Fill-26" fill="#FFFFFF" mask="url(#mask-2)" points="26.6863838 64.3209259 24.8465455 69.3518519 23.0125253 64.3209259 23.3577374 64.3209259 24.8465455 68.5001852 26.3392323 64.3209259"></polygon>
                            <polygon id="Fill-27" fill="#FFFFFF" mask="url(#mask-2)" points="30.1655919 69.2344074 27.8577131 69.2344074 27.8577131 64.3207963 30.1655919 64.3207963 30.1655919 64.6118148 28.1680162 64.6118148 28.1680162 66.3417222 30.1655919 66.3417222 30.1655919 66.634037 28.1680162 66.634037 28.1680162 68.9433889 30.1655919 68.9433889"></polygon>
                            <polygon id="Fill-28" fill="#FFFFFF" mask="url(#mask-2)" points="35.9762101 69.2344074 34.4667152 69.2344074 34.4667152 64.3207963 34.7802505 64.3207963 34.7802505 68.9433889 35.9762101 68.9433889"></polygon>
                            <path d="M39.8025697,67.232213 L38.8981657,64.9390648 L37.9950545,67.232213 L39.8025697,67.232213 Z M40.9287111,69.2343426 L40.5977212,69.2343426 L39.9234586,67.5232315 L37.8799838,67.5232315 L37.2050747,69.2343426 L36.871499,69.2343426 L38.8981657,64.2014722 L40.9287111,69.2343426 Z" id="Fill-29" fill="#FFFFFF" mask="url(#mask-2)"></path>
                            <path d="M44.6586182,67.9169167 C44.6586182,67.5610833 44.5338505,67.2895093 44.2759111,67.1021944 C44.0250828,66.9155278 43.6514263,66.8215463 43.1633455,66.8215463 L42.5304566,66.8215463 L42.5304566,68.9435833 L43.281002,68.9435833 C43.7723152,68.9435833 44.1285172,68.8567315 44.3399111,68.6914537 C44.5519515,68.5281204 44.6586182,68.2688611 44.6586182,67.9169167 M44.4129616,65.5971944 C44.4129616,65.2484907 44.3205172,64.9976574 44.1272242,64.8446944 C43.9345778,64.6891389 43.619103,64.6120093 43.1756283,64.6120093 L42.5304566,64.6120093 L42.5304566,66.5279352 L43.0482747,66.5279352 C43.5234263,66.5279352 43.8673455,66.4533981 44.0858505,66.3069167 C44.3062949,66.159787 44.4129616,65.9193241 44.4129616,65.5971944 M44.9740929,67.8858056 C44.9740929,68.3440463 44.836396,68.6856204 44.561002,68.9053426 C44.2881939,69.1263611 43.8621737,69.2346019 43.2868202,69.2346019 L42.2130424,69.2346019 L42.2130424,64.3209907 L43.2176485,64.3209907 C43.7199515,64.3209907 44.0961939,64.4233981 44.3476687,64.63275 C44.6010828,64.8362685 44.725204,65.1506204 44.725204,65.5628426 C44.725204,65.8746019 44.6502141,66.1163611 44.5028202,66.2920093 C44.3541333,66.4683056 44.1181737,66.5946944 43.802699,66.6731204 C44.1744162,66.7236759 44.4633859,66.8571944 44.6676687,67.0723796 C44.8693657,67.2888611 44.9740929,67.5565463 44.9740929,67.8858056" id="Fill-30" fill="#FFFFFF" mask="url(#mask-2)"></path>
                            <polygon id="Fill-31" fill="#FFFFFF" mask="url(#mask-2)" points="62.9913212 30.3637963 54.3028364 30.3637963 54.3028364 21.6494444 53.7300687 21.6494444 53.7300687 30.3637963 45.0396444 30.3637963 45.0396444 30.9374074 53.7300687 30.9374074 53.7300687 39.6517593 54.3028364 39.6517593 54.3028364 30.9374074 62.9913212 30.9374074"></polygon>
                            <polygon id="Fill-32" fill="#FAD03F" mask="url(#mask-2)" points="0.668444444 40.0387037 8.31353535 40.0387037 8.31353535 0.0602777778 0.668444444 0.0602777778"></polygon>
                            <polygon id="Fill-33" fill="#FFFFFF" mask="url(#mask-2)" points="51.3903192 0.0602777778 18.1038545 32.5726852 18.1038545 0.0602777778 10.4600566 0.0602777778 10.4600566 40.0387037 22.0621576 40.0387037 62.9911273 0.0602777778"></polygon>
                            <path d="M4.91636364,50.82 L6.40775758,50.82 L6.40775758,49.9080556 L4.91636364,49.9080556 L4.91636364,50.82 Z M3.96218182,51.7416667 L7.35224242,51.7416667 L7.35224242,48.9863889 L3.96218182,48.9863889 L3.96218182,51.7416667 Z M7.51773737,45.6309259 C7.51773737,47.3167593 7.4130101,48.2468519 7.22294949,48.4127778 C7.06715152,48.6208333 6.78852525,48.7167593 6.40775758,48.7167593 C6.19894949,48.7167593 5.96557576,48.6986111 5.69729293,48.6474074 L5.48848485,47.6641667 C5.80137374,47.7341667 6.07806061,47.7685185 6.3030303,47.7685185 C6.37284848,47.7685185 6.42456566,47.7341667 6.45107071,47.6557407 C6.48533333,47.569537 6.52024242,47.1955556 6.53769697,46.5428704 L5.49688889,46.5428704 C5.43676768,47.1424074 5.30618182,47.6038889 5.11547475,47.9344444 C4.88210101,48.3518519 4.5769697,48.6474074 4.20460606,48.8211111 L3.62472727,48.0044444 C3.93632323,47.8650926 4.16969697,47.6557407 4.30868687,47.3867593 C4.42181818,47.1955556 4.49939394,46.9084259 4.544,46.5428704 L3.90141414,46.5428704 L3.90141414,45.6309259 L7.51773737,45.6309259 Z M1.66464646,46.2388889 L1.66464646,45.4215741 L2.60913131,45.4215741 L2.60913131,46.2388889 L3.45923232,46.2388889 L3.45923232,47.1605556 L2.60913131,47.1605556 L2.60913131,47.9344444 L3.55490909,47.9344444 L3.55490909,48.8548148 L2.67894949,48.8548148 L2.67894949,49.7687037 L3.6589899,49.7687037 L3.6589899,50.7247222 L2.67894949,50.7247222 L2.67894949,51.8725926 C2.90391919,51.9594444 3.1469899,52.0203704 3.40751515,52.0456481 C4.04880808,52.115 4.89826263,52.15 5.97333333,52.15 C6.66828283,52.15 7.29276768,52.115 7.82933333,52.0456481 L7.51773737,53.1332407 L5.97333333,53.1332407 C4.73470707,53.1332407 3.78892929,53.0800926 3.1469899,52.9938889 C2.62723232,52.9238889 2.16694949,52.7761111 1.77713131,52.5589815 C1.5689697,52.4371296 1.38666667,52.2977778 1.22246465,52.1415741 C1.13519192,52.5589815 1.02206061,52.9323148 0.884363636,53.2725926 L0,52.7249074 C0.16420202,52.3593519 0.294787879,51.9328704 0.380767677,51.4376852 C0.467393939,50.9159259 0.528808081,50.2036111 0.545616162,49.2987963 L1.45648485,49.2987963 C1.45648485,49.8899074 1.4299798,50.4207407 1.39507071,50.8893519 C1.49979798,51.0371296 1.61163636,51.1687037 1.73446465,51.2814815 L1.73446465,48.8548148 L0.241777778,48.8548148 L0.241777778,47.9344444 L1.66464646,47.9344444 L1.66464646,47.1605556 L0.511353535,47.1605556 L0.511353535,46.2388889 L1.66464646,46.2388889 Z" id="Fill-34" fill="#FFFFFF" mask="url(#mask-2)"></path>
                            <path d="M14.5437091,49.2300926 L14.5437091,50.3682407 C15.2548202,50.150463 15.9135677,49.8996296 16.5380525,49.6040741 L17.1528404,50.4460185 C16.3473455,50.7765741 15.4797899,51.0637037 14.5437091,51.3080556 L14.5437091,51.9425926 C14.5437091,52.1331481 14.6212848,52.2284259 14.7770828,52.2381481 C14.8734061,52.2725 15.1067798,52.2809259 15.4881939,52.2809259 C15.7480727,52.2809259 15.8961131,52.255 15.9400727,52.1934259 C16.0001939,52.1415741 16.0525576,52.0372222 16.0874667,51.8810185 C16.1126788,51.7850926 16.1391838,51.6288889 16.1656889,51.4026852 L17.0836687,51.9075926 C16.9621333,52.5337037 16.7979313,52.907037 16.5981737,53.0288889 C16.547103,53.0982407 16.4074667,53.1416667 16.190901,53.1585185 C16.0777697,53.1850926 15.844396,53.2032407 15.4881939,53.2032407 C15.0376081,53.2032407 14.6917495,53.1682407 14.4480323,53.1150926 C13.8578101,53.0632407 13.5630222,52.7249074 13.5630222,52.1156481 L13.5630222,49.2300926 L14.5437091,49.2300926 Z M14.4745374,45.4215741 L14.4745374,46.4566667 C15.0809212,46.265463 15.6452848,46.0476852 16.1656889,45.7955556 L16.7804768,46.6822222 C16.0693657,46.9602778 15.2974869,47.2039815 14.4745374,47.4036111 L14.4745374,47.7341667 C14.4745374,47.9162963 14.5702141,48.0128704 14.7693253,48.0297222 C14.8902141,48.0647222 15.185002,48.0725 15.6614465,48.0725 C15.8521535,48.0725 15.9652848,48.0478704 16.0001939,47.9947222 C16.0428606,47.9512963 16.0777697,47.8566667 16.1042747,47.7173148 C16.1210828,47.6291667 16.1469414,47.4911111 16.1656889,47.2901852 L17.0836687,47.8035185 C16.9808808,48.3862037 16.8328404,48.7251852 16.6511838,48.8301852 C16.5981737,48.899537 16.4766384,48.942963 16.2865778,48.9598148 C16.1818505,48.977963 15.9736889,48.9863889 15.6614465,48.9863889 C15.158497,48.9863889 14.7693253,48.9598148 14.4913455,48.907963 C13.8235475,48.855463 13.4938505,48.5255556 13.4938505,47.9000926 L13.4938505,45.4215741 L14.4745374,45.4215741 Z M10.5459717,50.82 L12.1065374,50.82 L12.1065374,50.3863889 L10.5459717,50.3863889 L10.5459717,50.82 Z M10.5459717,49.5340741 L12.1065374,49.5340741 L12.1065374,49.1257407 L10.5459717,49.1257407 L10.5459717,49.5340741 Z M13.0859313,52.0806481 C13.0859313,52.8292593 12.6967596,53.2032407 11.9332848,53.2032407 C11.7257697,53.2032407 11.482699,53.1682407 11.2221737,53.0982407 L11.0237091,52.1156481 C11.3527596,52.2284259 11.6559515,52.2809259 11.9332848,52.2809259 C12.0457697,52.2809259 12.1065374,52.1415741 12.1065374,51.8460185 L12.1065374,51.6716667 L10.5459717,51.6716667 L10.5459717,53.2032407 L9.56593131,53.2032407 L9.56593131,48.2125 L13.0859313,48.2125 L13.0859313,52.0806481 Z M11.5253657,45.7262037 C11.4212848,46.0392593 11.2738909,46.3685185 11.0928808,46.6990741 C11.0405172,46.8040741 10.9888,46.9 10.9357899,46.9862037 C11.2919919,46.9434259 11.6300929,46.8818519 11.9597899,46.8040741 C11.8382545,46.6128704 11.7160727,46.4216667 11.5951838,46.2388889 L12.4103758,45.7262037 C12.8260525,46.3088889 13.1654465,46.9168519 13.4259717,47.5611111 L12.5758707,48.0725 C12.5144566,47.9162963 12.4536889,47.7685185 12.3838707,47.6207407 C11.5253657,47.8385185 10.5634263,47.9778704 9.49611313,48.0381481 L9.28924444,47.0912037 C9.46185051,47.0912037 9.63510303,47.0912037 9.80964848,47.0827778 C9.91372929,46.8915741 10.0003556,46.6990741 10.0856889,46.4994444 C10.2434263,46.134537 10.3727192,45.7689815 10.4768,45.3872222 L11.5253657,45.7262037 Z" id="Fill-35" fill="#FFFFFF" mask="url(#mask-2)"></path>
                            <path d="M21.7002667,47.0560741 L21.7002667,45.6307963 L22.7507717,45.6307963 L22.7507717,47.0560741 L26.001196,47.0560741 C26.001196,49.6551481 25.9229737,51.2813519 25.7762263,51.942463 C25.6727919,52.4207963 25.507297,52.7332037 25.2816808,52.8978333 C25.0302061,53.0553333 24.6921051,53.1331111 24.2757818,53.1331111 C23.8504081,53.1331111 23.4353778,53.0806111 23.0190545,52.9937593 L22.7856808,51.872463 C23.2873374,52.0118148 23.7909333,52.0805185 24.2757818,52.0805185 C24.4755394,52.0805185 24.6145293,52.0286667 24.6921051,51.9243148 C24.7612768,51.819963 24.8129939,51.5853333 24.847903,51.2197778 C24.9177212,50.5243148 24.9519838,49.4730185 24.9519838,48.0730185 L22.7404283,48.0730185 C22.6809535,49.1508889 22.3680646,50.1419074 21.8049939,51.0376481 C21.2154182,51.9508889 20.477802,52.6897778 19.6018424,53.272463 L19.0562263,52.3857963 C19.965802,51.7331111 20.643297,51.0026481 21.0945293,50.1853333 C21.4403879,49.5073704 21.6401455,48.8034815 21.6918626,48.0730185 L19.1945697,48.0730185 L19.1945697,47.0560741 L21.7002667,47.0560741 Z" id="Fill-36" fill="#FFFFFF" mask="url(#mask-2)"></path>
                            <path d="M33.4698667,50.959287 C33.7478465,50.6553056 33.9728162,50.3078981 34.1557657,49.9079907 L32.7244929,49.9079907 C32.9145535,50.3078981 33.1582707,50.6553056 33.4698667,50.959287 L33.4698667,50.959287 Z M34.6839273,45.5265093 L34.6839273,47.2901204 C34.6839273,47.5078981 34.7104323,47.6388241 34.761503,47.68225 C34.7964121,47.6991019 34.8494222,47.6991019 34.9004929,47.6991019 C34.926998,47.6991019 34.9522101,47.6991019 34.9787152,47.68225 C35.0052202,47.6641019 35.0213818,47.6388241 35.0401293,47.6038241 C35.0562909,47.5344722 35.0743919,47.2901204 35.0912,46.881787 L35.9671596,47.3251204 C35.932897,47.9000278 35.8365737,48.246787 35.6646141,48.3861389 C35.5682909,48.4561389 35.4642101,48.4995648 35.3601293,48.5164167 C35.1952808,48.5423426 35.0401293,48.5507685 34.9004929,48.5507685 C34.441503,48.5507685 34.1635232,48.5079907 34.0594424,48.4211389 C33.7995636,48.377713 33.6702707,48.0905833 33.6702707,47.5610463 L33.6702707,46.4734537 L32.7846141,46.4734537 L32.7846141,46.881787 C32.7587556,47.4910463 32.6805333,47.9078056 32.5415434,48.1340093 C32.4206545,48.3861389 32.2215434,48.6389167 31.9351596,48.88975 L31.1290182,48.1774352 C31.3546343,48.0212315 31.5278869,47.8468796 31.6494222,47.6641019 C31.7696646,47.4560463 31.8394828,47.1954907 31.8394828,46.881787 L31.8394828,45.5265093 L32.3081697,45.5265093 L34.6839273,45.5265093 Z M35.2566949,48.95975 L35.2566949,49.6733611 C34.9619071,50.4556759 34.6147556,51.090213 34.2145939,51.5685463 C34.6671192,51.8641019 35.2043313,52.0987315 35.8365737,52.2808611 L35.3252202,53.2725278 C34.6322101,53.0288241 34.0161293,52.6982685 33.4795636,52.2724352 C32.9242505,52.7248426 32.2816646,53.0553981 31.562796,53.2725278 L31.0941091,52.3508611 C31.7444525,52.1765093 32.2997657,51.9243796 32.7671596,51.5938241 C32.3346747,51.1154907 31.9784727,50.5509537 31.7095434,49.9079907 L31.3281293,49.9079907 L31.3281293,48.95975 L35.2566949,48.95975 Z M29.1954424,52.0799352 L30.1050182,52.0799352 L30.1050182,51.1945648 L29.1954424,51.1945648 L29.1954424,52.0799352 Z M28.4151596,46.4734537 L30.9202101,46.4734537 L30.9202101,45.5615093 L28.4151596,45.5615093 L28.4151596,46.4734537 Z M28.3802505,48.8216944 L30.9544727,48.8216944 L30.9544727,47.9000278 L28.3802505,47.9000278 L28.3802505,48.8216944 Z M28.3459879,50.0123426 L30.9202101,50.0123426 L30.9202101,49.0906759 L28.3459879,49.0906759 L28.3459879,50.0123426 Z M31.0242909,52.9588241 L29.1954424,52.9588241 L29.1954424,53.2725278 L28.2761697,53.2725278 L28.2761697,50.3163241 L31.0242909,50.3163241 L31.0242909,52.9588241 Z M27.9736242,47.6291019 L31.3281293,47.6291019 L31.3281293,46.6821574 L27.9736242,46.6821574 L27.9736242,47.6291019 Z" id="Fill-37" fill="#FFFFFF" mask="url(#mask-2)"></path>
                            <path d="M42.5178505,48.1075648 L42.5178505,45.4216389 L43.5315071,45.4216389 L43.5315071,48.1075648 L45.1269818,48.1075648 L45.1269818,49.1251574 L43.5315071,49.1251574 L43.5315071,53.2376574 L42.5178505,53.2376574 L42.5178505,49.1251574 L40.853204,49.1251574 L40.853204,48.1075648 L42.5178505,48.1075648 Z M38.5201131,52.045713 L39.7690828,52.045713 L39.7690828,51.2283981 L38.5201131,51.2283981 L38.5201131,52.045713 Z M37.7404768,46.4735833 L40.6185374,46.4735833 L40.6185374,45.5266389 L37.7404768,45.5266389 L37.7404768,46.4735833 Z M37.636396,50.0474722 L40.6185374,50.0474722 L40.6185374,49.0908056 L37.636396,49.0908056 L37.636396,50.0474722 Z M37.6008404,48.8548796 L40.6528,48.8548796 L40.6528,47.8995093 L37.6008404,47.8995093 L37.6008404,48.8548796 Z M40.7226182,53.2376574 L39.7690828,53.2376574 L39.7690828,52.9323796 L38.5201131,52.9323796 L38.5201131,53.2376574 L37.5749818,53.2376574 L37.5749818,50.3164537 L40.7226182,50.3164537 L40.7226182,53.2376574 Z M37.3674667,47.6642315 L41.0600727,47.6642315 L41.0600727,46.682287 L37.3674667,46.682287 L37.3674667,47.6642315 Z" id="Fill-38" fill="#FFFFFF" mask="url(#mask-2)"></path>
                            <path d="M54.3133091,46.4132407 L53.6707232,47.2208333 C53.3849859,46.8915741 53.090198,46.6128704 52.7863596,46.3782407 L53.4289455,45.6996296 C53.7489455,45.8999074 54.0437333,46.134537 54.3133091,46.4132407 L54.3133091,46.4132407 Z M49.9768242,46.7522222 L50.5230869,46.7522222 L50.5230869,46.2738889 L49.9768242,46.2738889 L49.9768242,46.7522222 Z M49.4661172,50.0726852 L50.2114909,50.0726852 L50.2114909,49.7687037 L49.4661172,49.7687037 L49.4661172,50.0726852 Z M49.4661172,48.9248148 L50.2114909,48.9248148 L50.2114909,48.5858333 L49.4661172,48.5858333 L49.4661172,48.9248148 Z M49.1267232,47.499537 L51.3641374,47.499537 L51.3641374,45.5265741 L49.1267232,45.5265741 L49.1267232,47.499537 Z M47.8441374,50.0726852 L48.5203394,50.0726852 L48.5203394,49.7687037 L47.8441374,49.7687037 L47.8441374,50.0726852 Z M47.8441374,48.9248148 L48.5203394,48.9248148 L48.5203394,48.5858333 L47.8441374,48.5858333 L47.8441374,48.9248148 Z M47.5745616,46.7522222 L48.0775111,46.7522222 L48.0775111,46.2738889 L47.5745616,46.2738889 L47.5745616,46.7522222 Z M46.7264,47.499537 L48.9276121,47.499537 L48.9276121,45.5265741 L46.7264,45.5265741 L46.7264,47.499537 Z M54.5124202,48.1775 L52.8038141,48.5508333 C52.8393697,49.0907407 52.8736323,49.5075 52.9253495,49.8030556 C52.9518545,49.9592593 52.9783596,50.107037 53.0035717,50.2463889 C53.2382384,49.8464815 53.4451071,49.3947222 53.6358141,48.8898148 L54.4859152,49.3331481 C54.1310061,50.237963 53.7398949,50.9677778 53.3242182,51.5238889 C53.3326222,51.577037 53.3507232,51.620463 53.3675313,51.6548148 C53.4890667,52.0372222 53.5756929,52.22 53.6358141,52.22 C53.6539152,52.22 53.6623192,52.2031481 53.6804202,52.15 C53.6972283,52.0637963 53.7056323,51.8194444 53.7056323,51.4026852 L54.5815919,51.6716667 C54.4949657,52.4371296 54.3559758,52.889537 54.1562182,53.0548148 C54.0269253,53.1766667 53.8530263,53.2375926 53.6358141,53.2375926 C53.3849859,53.2375926 53.1419152,53.0373148 52.9085414,52.6549074 C52.8303192,52.5071296 52.7611475,52.3677778 52.6997333,52.2115741 C52.2834101,52.5933333 51.8231273,52.9238889 51.3298747,53.2025926 L50.8876929,52.3859259 C50.9736727,52.3327778 51.0615919,52.2809259 51.1482182,52.22 L49.4661172,52.22 L49.4661172,53.2725926 L48.5203394,53.2725926 L48.5203394,52.22 L46.6565818,52.22 L46.6565818,51.2983333 L48.5203394,51.2983333 L48.5203394,50.9593519 L46.8983596,50.9593519 L46.8983596,47.6991667 L51.1656727,47.6991667 L51.1656727,50.9593519 L49.4661172,50.9593519 L49.4661172,51.2983333 L51.3990465,51.2983333 L51.3990465,52.0456481 C51.7804606,51.7766667 52.1017535,51.489537 52.3616323,51.1849074 C52.2924606,50.9243519 52.2310465,50.6553704 52.1793293,50.3682407 C52.0836525,49.9164815 52.0060768,49.3681481 51.9459556,48.7336111 L51.3990465,48.8548148 L51.2335515,47.8994444 L51.8683798,47.7685185 C51.8153697,47.0646296 51.7888646,46.2823148 51.7720566,45.4215741 L52.6913293,45.4215741 C52.6997333,46.2473148 52.7165414,46.9693519 52.7514505,47.577963 L54.416097,47.2208333 L54.5124202,48.1775 Z" id="Fill-39" fill="#FFFFFF" mask="url(#mask-2)"></path>
                            <path d="M60.7577212,46.5081296 L60.2373172,46.7518333 L61.4177616,46.7518333 C61.4856404,46.6209074 61.5548121,46.4815556 61.6162263,46.3435 C61.7468121,46.0479444 61.859297,45.7523889 61.9459232,45.4568333 L62.9944889,45.7958148 C62.8994586,46.0395185 62.7772768,46.2819259 62.6221253,46.5347037 C62.5704081,46.6209074 62.5270949,46.6993333 62.4928323,46.7518333 L63.6719838,46.7518333 L63.6719838,47.6644259 L61.5645091,47.6644259 C61.4953374,47.7519259 61.4255192,47.8219259 61.3563475,47.8899815 C61.5729131,48.1343333 61.7468121,48.378037 61.8845091,48.6385926 C62.2491152,48.4467407 62.5781657,48.2121111 62.8904081,47.9347037 L63.5329939,48.6820185 C63.1502869,48.9775741 62.7772768,49.2206296 62.4049131,49.4111852 C62.5005899,49.786463 62.6395798,50.1157222 62.8218828,50.4028519 C63.047499,50.8027593 63.3849535,51.2383148 63.8361859,51.7069259 L63.0636606,52.420537 C62.7953778,52.1068333 62.562004,51.7847037 62.3616,51.4554444 C62.3182869,52.0802593 62.179297,52.5242407 61.9375192,52.8029444 C61.6511354,53.0900741 61.3046303,53.2378519 60.8973576,53.2378519 C60.6704485,53.2378519 60.3588525,53.2112778 59.9774384,53.1678519 L59.7770343,52.1502593 C60.1849535,52.263037 60.5573172,52.3161852 60.8973576,52.3161852 C61.0350545,52.3161852 61.1656404,52.2377593 61.2697212,52.0634074 C61.3725091,51.8728519 61.4339232,51.5241481 61.4339232,51.028963 L61.4339232,50.9596111 C61.1391354,51.2201667 60.8359434,51.4372963 60.5411556,51.6200741 C60.0375596,51.9324815 59.5171556,52.1936852 58.9624889,52.385537 L58.5203071,51.5072963 C59.1447919,51.2979444 59.6994586,51.0373889 60.1849535,50.7418333 C60.5922263,50.5156296 60.9749333,50.2382222 61.3388929,49.9160926 C61.3123879,49.7948889 61.2865293,49.6821111 61.2522667,49.5686852 C60.9917414,49.7683148 60.7318626,49.9426667 60.4719838,50.0904444 C60.0718222,50.3166481 59.6477414,50.5072037 59.1971556,50.6549815 L58.7633778,49.7683148 C59.2656808,49.620537 59.7259636,49.4377593 60.1248323,49.2206296 C60.3853576,49.0903519 60.6368323,48.9425741 60.8708525,48.7688704 C60.8010343,48.6820185 60.7318626,48.5860926 60.6620444,48.4992407 C60.1248323,48.8900741 59.6477414,49.1687778 59.2320646,49.3334074 L58.659297,48.5160926 C59.0581657,48.3948889 59.4744889,48.2036852 59.9082667,47.9347037 C60.0556606,47.8472037 60.1946505,47.7603519 60.3155394,47.6644259 L58.6942061,47.6644259 L58.6942061,46.7518333 L59.6567919,46.7518333 C59.5520646,46.4731296 59.4227717,46.1957222 59.2656808,45.9351667 L60.1849535,45.4918333 C60.4105697,45.8042407 60.6025697,46.1425741 60.7577212,46.5081296 L60.7577212,46.5081296 Z M57.6107313,50.8196111 C57.7309737,50.8196111 57.8014384,50.6815556 57.809196,50.386 C57.809196,50.0988704 57.7484283,49.8033148 57.6359434,49.4909074 C57.5228121,49.1856296 57.3321051,48.8647963 57.0638222,48.5342407 L57.0638222,50.7165556 C57.2810343,50.7865556 57.4626909,50.8196111 57.6107313,50.8196111 L57.6107313,50.8196111 Z M57.5926303,46.5081296 L57.0638222,46.5081296 L57.0638222,48.220537 L57.5926303,46.5081296 Z M57.999903,48.2121111 C58.2255192,48.5258148 58.4071758,48.8550741 58.5468121,49.1856296 C58.7019636,49.6121111 58.7898828,50.0120185 58.7898828,50.386 C58.7717818,51.3426667 58.3819636,51.8112778 57.6107313,51.8112778 L57.2377212,51.8112778 L57.0638222,51.0121111 L57.0638222,53.2728519 L56.0837818,53.2728519 L56.0837818,45.5611852 L58.9275798,45.5611852 L57.999903,48.2121111 Z" id="Fill-40" fill="#FFFFFF" mask="url(#mask-2)"></path>
                        </g>
                    </g>
                </g>
            </g>
        </g>
    </g>
</svg>