<?xml version="1.0" encoding="utf-8"?>
<!-- Generator: Adobe Illustrator 21.0.2, SVG Export Plug-In . SVG Version: 6.00 Build 0)  -->
<!DOCTYPE svg PUBLIC "-//W3C//DTD SVG 1.1//EN" "http://www.w3.org/Graphics/SVG/1.1/DTD/svg11.dtd">
<svg version="1.1" id="Layer_1" xmlns="http://www.w3.org/2000/svg" xmlns:xlink="http://www.w3.org/1999/xlink" x="0px" y="0px"
	 viewBox="0 0 64 76" style="enable-background:new 0 0 64 76;" xml:space="preserve">
<style type="text/css">
	.st0{filter:url(#Adobe_OpacityMaskFilter);}
	.st1{fill:#FFFFFF;}
	.st2{mask:url(#b);fill:#58FCFA;}
</style>
<title>Page 1</title>
<g>
	<g transform="translate(0 -.084)">
		<defs>
			<filter id="Adobe_OpacityMaskFilter" filterUnits="userSpaceOnUse" x="0" y="0.1" width="63.8" height="75.9">
				<feColorMatrix  type="matrix" values="1 0 0 0 0  0 1 0 0 0  0 0 1 0 0  0 0 0 1 0"/>
			</filter>
		</defs>
		<mask maskUnits="userSpaceOnUse" x="0" y="0.1" width="63.8" height="75.9" id="b">
			<g class="st0">
				<path id="a" class="st1" d="M63.8,0.1H0V76h63.8V0.1z"/>
			</g>
		</mask>
		<path class="st2" d="M31.9,5.2L13.3,22.3c-6,5.4-9.5,13.2-9.5,21.3c0,15.5,12.6,28.4,28.2,28.6C47.4,71.9,60,59.1,60,43.6
			c0-8.1-3.5-15.9-9.5-21.3l0,0C50.5,22.3,31.9,5.2,31.9,5.2z M0,43.6c0-9.2,3.9-18,10.8-24.1L31.9,0.1l21.2,19.4
			c6.8,6.1,10.8,14.9,10.8,24.1C63.8,61.2,49.5,75.7,32,76C14.3,75.7,0,61.2,0,43.6z"/>
	</g>
</g>
</svg>
