<?xml version="1.0" encoding="utf-8"?>
<!-- Generator: Adobe Illustrator 21.0.2, SVG Export Plug-In . SVG Version: 6.00 Build 0)  -->
<!DOCTYPE svg PUBLIC "-//W3C//DTD SVG 1.1//EN" "http://www.w3.org/Graphics/SVG/1.1/DTD/svg11.dtd">
<svg version="1.1" id="Layer_1" xmlns="http://www.w3.org/2000/svg" xmlns:xlink="http://www.w3.org/1999/xlink" x="0px" y="0px"
	 viewBox="0 0 64 76" style="enable-background:new 0 0 64 76;" xml:space="preserve">
<style type="text/css">
	.st0{fill:#E20073;}
</style>
<title>Page 1</title>
<g>
	<path class="st0" d="M31.9,56.4c-7.3-0.1-13.1-6.1-13.1-13.4c0-3.8,1.6-7.4,4.4-9.9l8.7-8l8.7,8c2.8,2.5,4.4,6.1,4.4,9.9
		C45.1,50.4,39.2,56.3,31.9,56.4 M45.6,28.1L31.9,15.5L18.2,28.1c-4.4,4-7,9.7-7,15.6c0,11.5,9.2,20.8,20.6,21
		c11.4-0.2,20.6-9.5,20.6-21C52.6,37.7,50,32.1,45.6,28.1"/>
</g>
</svg>
