<?xml version="1.0" encoding="UTF-8"?>
<svg width="236px" height="58px" viewBox="0 0 236 58" version="1.1" xmlns="http://www.w3.org/2000/svg" xmlns:xlink="http://www.w3.org/1999/xlink">
    <!-- Generator: Sketch 42 (36781) - http://www.bohemiancoding.com/sketch -->
    <title>ci_kidsicon</title>
    <desc>Created with Sketch.</desc>
    <defs>
        <polygon id="path-1" points="-6.3085903e-17 56.5247419 -6.3085903e-17 0.872806452 55.547812 0.872806452 55.547812 56.5247419 -1.92412004e-15 56.5247419"></polygon>
        <polygon id="path-3" points="27.7145246 0.168387097 27.7145246 28.6625806 0.333881967 28.6625806 0.333881967 0.168387097 27.7145246 0.168387097"></polygon>
        <polygon id="path-5" points="48.2469515 55.1612903 0.0730103427 55.1612903 0.0730103427 0.293419355 48.2469515 0.293419355"></polygon>
        <polygon id="path-7" points="0.954059016 0.751935484 25.879141 0.751935484 25.879141 25.689871 0.954059016 25.689871 0.954059016 0.751935484"></polygon>
    </defs>
    <g id="Page-1" stroke="none" stroke-width="1" fill="none" fill-rule="evenodd">
        <g id="Desktop-HD" transform="translate(-314.000000, -1119.000000)">
            <g id="associated" transform="translate(314.000000, 1057.000000)">
                <g id="ci_kidsicon" transform="translate(0.000000, 61.000000)">
                    <g id="Page-1" transform="translate(0.000000, 0.335868)">
                        <path d="M95.1009393,55.4692258 L79.6313328,31.5814839 C79.4833492,30.9214839 78.8962508,30.4530968 78.2201689,30.4530968 C77.5431197,30.4530968 76.9569885,30.9214839 76.8090049,31.5814839 L61.3393984,55.4692258 C61.2417098,55.8989032 61.3452016,56.3489032 61.6198902,56.6924516 C61.8936115,57.0369677 62.3104803,57.2372903 62.7505623,57.2372903 L93.6897754,57.2372903 C94.1298574,57.2372903 94.5467262,57.0369677 94.8204475,56.6924516 C95.0951361,56.3489032 95.1986279,55.8989032 95.1009393,55.4692258" id="Fill-1" fill="#F9BD00"></path>
                        <g id="Group-5" transform="translate(0.000000, 1.183935)">
                            <mask id="mask-2" fill="white">
                                <use xlink:href="#path-1"></use>
                            </mask>
                            <g id="Clip-4"></g>
                            <path d="M55.3195607,54.0240968 L40.0869213,28.6218387 L53.8590689,3.24087097 C54.1289213,2.74441935 54.1173148,2.14248387 53.828118,1.65667742 C53.5389213,1.17087097 53.0166262,0.872806452 52.4508066,0.872806452 L30.0172656,0.872806452 C29.3769705,0.872806452 28.7966426,1.25506452 28.5442,1.84441935 L22.6471016,15.6144194 L22.6471016,2.47635484 C22.6471016,1.59087097 21.9294295,0.872806452 21.0444295,0.872806452 L1.60247869,0.872806452 C0.717478689,0.872806452 -0.000193442623,1.59087097 -0.000193442623,2.47635484 L-0.000193442623,54.8486129 C-0.000193442623,55.5221613 0.417642623,56.0940968 1.00764262,56.3311935 C1.2194623,56.4444194 1.45256066,56.5247419 1.70790492,56.5247419 L17.3593475,56.5247419 C17.4870197,56.5247419 17.6011508,56.4811935 17.720118,56.4521613 L21.0444295,56.4521613 C21.9294295,56.4521613 22.6471016,55.7340968 22.6471016,54.8486129 L22.6471016,40.6905484 L30.0801344,55.5657097 C30.3509541,56.1086129 30.9061344,56.4521613 31.5135443,56.4521613 L53.946118,56.4521613 C54.522577,56.4521613 55.0564787,56.1415161 55.3398721,55.6382903 C55.6232656,55.1350645 55.6174623,54.5195806 55.3195607,54.0240968" id="Fill-3" fill="#E96DA3" mask="url(#mask-2)"></path>
                        </g>
                        <g id="Group-8" transform="translate(207.950820, 5.054903)">
                            <mask id="mask-4" fill="white">
                                <use xlink:href="#path-3"></use>
                            </mask>
                            <g id="Clip-7"></g>
                            <path d="M26.3673902,7.85225806 L20.584423,7.85225806 L20.584423,1.51645161 C20.584423,0.771290323 19.9799148,0.168387097 19.2370951,0.168387097 L8.81343934,0.168387097 C8.06965246,0.168387097 7.46611148,0.771290323 7.46611148,1.51645161 L7.46611148,7.85225806 L1.68120984,7.85225806 C0.937422951,7.85225806 0.333881967,8.45516129 0.333881967,9.20032258 L0.333881967,19.6296774 C0.333881967,20.3748387 0.937422951,20.9777419 1.68120984,20.9777419 L7.46611148,20.9777419 L7.46611148,27.3145161 C7.46611148,28.0587097 8.06965246,28.6625806 8.81343934,28.6625806 L19.2370951,28.6625806 C19.9799148,28.6625806 20.584423,28.0587097 20.584423,27.3145161 L20.584423,20.9777419 L26.3673902,20.9777419 C27.1121443,20.9777419 27.7156852,20.3748387 27.7156852,19.6296774 L27.7156852,9.20032258 C27.7156852,8.45516129 27.1121443,7.85225806 26.3673902,7.85225806" id="Fill-6" fill="#E63830" mask="url(#mask-4)"></path>
                        </g>
                        <g id="Group-11" transform="translate(154.754098, 3.119419)">
                            <mask id="mask-6" fill="white">
                                <use xlink:href="#path-5"></use>
                            </mask>
                            <g id="Clip-10"></g>
                            <path d="M40.6281738,23.0440645 C40.8496656,22.8669677 41.0440754,22.6511613 41.1978623,22.4053548 L47.8619607,11.7369677 C48.4867803,10.7343871 48.3397639,9.43180645 47.5031246,8.59470968 C47.1646,8.256 39.0593541,0.293419355 26.1596328,0.293419355 C9.9800918,0.293419355 2.73856721,9.3843871 2.73856721,18.3930968 C2.73856721,24.3708387 5.33553443,28.3337419 8.57473115,31.0656774 C7.97796066,31.2369677 7.45856721,31.6240645 7.12197705,32.1611613 L0.458845902,42.8295484 C-0.139859016,43.7876129 -0.0334655738,45.0272903 0.719993443,45.8692258 C1.05851803,46.2485806 9.20922295,55.1614839 24.8268131,55.1614839 C41.0053869,55.1614839 48.2469115,46.0714839 48.2469115,37.0627742 C48.2469115,30.0214839 44.6440426,25.7750323 40.6281738,23.0440645" id="Fill-9" fill="#69A1D6" mask="url(#mask-6)"></path>
                        </g>
                        <g id="Group-14" transform="translate(64.803279, 0.216194)">
                            <mask id="mask-8" fill="white">
                                <use xlink:href="#path-7"></use>
                            </mask>
                            <g id="Clip-13"></g>
                            <path d="M25.879141,13.2205161 C25.879141,20.1069677 20.2992885,25.689871 13.4166,25.689871 C6.53391148,25.689871 0.954059016,20.1069677 0.954059016,13.2205161 C0.954059016,6.33406452 6.53391148,0.75116129 13.4166,0.75116129 C20.2992885,0.75116129 25.879141,6.33406452 25.879141,13.2205161" id="Fill-12" fill="#F9BD00" mask="url(#mask-8)"></path>
                        </g>
                        <path d="M120.699008,45.4515484 C120.176713,45.4515484 119.667959,45.4002581 119.165975,45.3228387 C116.913336,45.1912258 114.697451,44.2747742 112.975811,42.5521935 C109.594434,39.1689677 109.29073,33.884129 112.043418,30.1457419 C113.810516,27.2057419 117.01973,25.2315484 120.699008,25.2315484 C126.279828,25.2315484 130.803484,29.7576774 130.803484,35.3415484 C130.803484,40.9254194 126.279828,45.4515484 120.699008,45.4515484 M144.938336,1.54993548 L133.864713,1.54993548 C131.763926,1.54993548 130.046156,3.26864516 130.046156,5.37058065 L130.046156,16.9031613 C127.099057,15.3925161 123.76991,14.5244516 120.232811,14.5244516 C108.312877,14.5244516 98.650418,24.1921935 98.650418,36.1176774 C98.650418,48.0431613 108.312877,57.7109032 120.232811,57.7109032 C123.859861,57.7109032 127.272189,56.8050968 130.272484,55.2238065 C130.793811,56.7150968 132.203041,57.7989677 133.864713,57.7989677 L144.938336,57.7989677 C147.037189,57.7989677 148.756893,56.0792903 148.756893,53.9783226 L148.756893,5.37058065 C148.756893,3.26864516 147.037189,1.54993548 144.938336,1.54993548" id="Fill-15" fill="#8CC23E"></path>
                    </g>
                </g>
            </g>
        </g>
    </g>
</svg>